<svg width="256" height="256" viewBox="0 0 256 256" xmlns="http://www.w3.org/2000/svg">
  <rect width="256" height="256" rx="28" fill="#1a1a2e"/>
  <!-- Radar rings -->
  <circle cx="128" cy="128" r="120" fill="none" stroke="#ffffff" stroke-width="1.2" opacity="0.7"/>
  <circle cx="128" cy="128" r="82" fill="none" stroke="#ffffff" stroke-width="1.2" opacity="0.7"/>
  <circle cx="128" cy="128" r="44" fill="none" stroke="#ffffff" stroke-width="1.2" opacity="0.7"/>
  <!-- Radar sweep -->
  <path d="M128,128 L128,8 A120,120 0 0,1 223,55 Z" fill="#e87040" opacity="0.1"/>
  <!-- Cross hairs -->
  <line x1="128" y1="8" x2="128" y2="248" stroke="#ffffff" stroke-width="0.8" opacity="0.5"/>
  <line x1="8" y1="128" x2="248" y2="128" stroke="#ffffff" stroke-width="0.8" opacity="0.5"/>
  <!-- Claude asterisk center -->
  <g transform="translate(128,128)" stroke="#e87040" stroke-width="6" stroke-linecap="round">
    <line y1="-30" y2="30"/>
    <line x1="-30" y1="0" x2="30" y2="0"/>
    <line x1="-21" y1="-21" x2="21" y2="21"/>
    <line x1="21" y1="-21" x2="-21" y2="21"/>
  </g>
  <circle cx="128" cy="128" r="6" fill="#e87040"/>
  <!-- Session dots -->
  <circle cx="185" cy="58" r="16" fill="#e8a040"/>
  <circle cx="68" cy="178" r="16" fill="#4ade80"/>
  <circle cx="198" cy="185" r="14" fill="#4ade80"/>
</svg>
